<svg width="1200" height="260" viewBox="0 0 1200 260" xmlns="http://www.w3.org/2000/svg" role="img" aria-label="Build archive garage bay visual">
<rect width="1200" height="260" rx="18" fill="#111827"/>
<text x="60" y="62" fill="#f8fafc" font-size="32" font-family="Segoe UI" font-weight="700">BUILD ARCHIVE</text>
<g fill="#0b1220" stroke="#334155"><rect x="60" y="92" width="200" height="130" rx="10"/><rect x="280" y="92" width="200" height="130" rx="10"/><rect x="500" y="92" width="200" height="130" rx="10"/><rect x="720" y="92" width="200" height="130" rx="10"/><rect x="940" y="92" width="200" height="130" rx="10"/></g>
<path d="M90 184C118 166 153 162 188 166C214 169 229 176 245 176" stroke="#60a5fa" stroke-width="3"/>
<path d="M310 181C338 162 378 160 412 166C433 171 448 178 466 179" stroke="#8b5cf6" stroke-width="3"/>
<path d="M532 182C560 160 600 161 638 168C662 173 675 179 694 180" stroke="#60a5fa" stroke-width="3"/>
<path d="M752 184C782 164 818 161 850 166C874 170 895 180 912 180" stroke="#a78bfa" stroke-width="3"/>
<path d="M972 182C1004 160 1042 161 1076 167C1099 171 1119 178 1136 179" stroke="#38bdf8" stroke-width="3"/>
<path d="M50 232H1150" stroke="#ef4444" stroke-opacity=".6" stroke-width="2"/>
</svg>
