<svg xmlns="http://www.w3.org/2000/svg" viewBox="0 0 1200 240" width="1200" height="240" role="img" aria-label="build archive garage bay"><defs><linearGradient id="bg" x1="0" x2="1"><stop offset="0" stop-color="#020617"/><stop offset="1" stop-color="#111827"/></linearGradient><linearGradient id="n" x1="0" x2="1"><stop offset="0" stop-color="#38bdf8"/><stop offset="1" stop-color="#8b5cf6"/></linearGradient></defs><rect width="1200" height="240" fill="url(#bg)"/><text x="50" y="48" fill="#f8fafc" font-size="28">BUILD ARCHIVE</text><g fill="#0f172a" fill-opacity=".72" stroke="#60a5fa" stroke-opacity=".4"><rect x="44" y="68" width="216" height="148" rx="12"/><rect x="274" y="68" width="216" height="148" rx="12"/><rect x="504" y="68" width="216" height="148" rx="12"/><rect x="734" y="68" width="216" height="148" rx="12"/><rect x="964" y="68" width="192" height="148" rx="12"/></g><g fill="#cbd5e1" font-size="16"><text x="62" y="102">LUNARIA</text><text x="292" y="102">QUIZVERSE</text><text x="522" y="102">ROUTEGARAGE</text><text x="752" y="102">NTE BUILD</text><text x="982" y="102">MEALWISE</text></g><path d="M70 186 L1130 186" stroke="url(#n)" stroke-width="2"/><g stroke="#ef4444" stroke-width="4"><path d="M196 196h44"/><path d="M426 196h44"/><path d="M656 196h44"/><path d="M886 196h44"/><path d="M1088 196h44"/></g></svg>
