<svg width="1200" height="420" viewBox="0 0 1200 420" fill="none" xmlns="http://www.w3.org/2000/svg" role="img" aria-label="Cyber anime racing HUD hero banner">
  <defs>
    <linearGradient id="bg" x1="0" y1="0" x2="1200" y2="420" gradientUnits="userSpaceOnUse">
      <stop stop-color="#020617"/><stop offset="1" stop-color="#111827"/>
    </linearGradient>
    <linearGradient id="neon" x1="0" y1="0" x2="1" y2="1"><stop stop-color="#38bdf8"/><stop offset="1" stop-color="#a78bfa"/></linearGradient>
    <linearGradient id="tail" x1="0" y1="0" x2="1" y2="0"><stop stop-color="#ef4444" stop-opacity="0"/><stop offset="0.5" stop-color="#ef4444"/><stop offset="1" stop-color="#f97316" stop-opacity="0.2"/></linearGradient>
  </defs>
  <rect width="1200" height="420" rx="22" fill="url(#bg)"/>
  <g opacity="0.18" stroke="#38bdf8" stroke-width="1">
    <path d="M0 70H1200M0 140H1200M0 210H1200M0 280H1200M0 350H1200"/>
    <path d="M100 0V420M260 0V420M420 0V420M580 0V420M740 0V420M900 0V420M1060 0V420"/>
  </g>
  <rect x="0" y="0" width="1200" height="420" fill="url(#tail)" opacity="0.15">
    <animate attributeName="x" values="-1200;1200" dur="14s" repeatCount="indefinite"/>
  </rect>
  <g transform="translate(870 210)">
    <circle r="110" stroke="#1e293b" stroke-width="18"/>
    <circle r="110" stroke="url(#neon)" stroke-width="6" stroke-dasharray="22 14" opacity="0.9">
      <animateTransform attributeName="transform" type="rotate" from="0" to="360" dur="20s" repeatCount="indefinite"/>
    </circle>
    <path d="M0 -100 A100 100 0 0 1 86 -50" stroke="#ef4444" stroke-width="8" stroke-linecap="round" opacity="0.9"/>
    <path d="M0 0L72 -20" stroke="#60a5fa" stroke-width="4" stroke-linecap="round">
      <animateTransform attributeName="transform" type="rotate" values="-20;35;-20" dur="8s" repeatCount="indefinite"/>
    </path>
  </g>
  <path d="M180 300C280 258 385 252 470 258C560 264 635 274 715 268C765 264 812 247 868 250" stroke="#60a5fa" stroke-width="4" opacity="0.8"/>
  <path d="M180 315C305 306 402 298 525 304C620 309 726 325 860 306" stroke="#8b5cf6" stroke-width="2" opacity="0.75"/>
  <path d="M145 288C196 268 260 257 338 258C419 258 500 276 561 277" stroke="#cbd5e1" stroke-width="2" opacity="0.65"/>
  <rect x="150" y="333" width="760" height="4" fill="#38bdf8" opacity="0.5"/>
  <rect x="150" y="346" width="760" height="3" fill="#8b5cf6" opacity="0.35"/>
  <rect x="570" y="293" width="120" height="5" rx="3" fill="#ef4444"><animate attributeName="x" values="540;700;540" dur="7s" repeatCount="indefinite"/></rect>
  <g fill="#38bdf8">
    <circle cx="130" cy="96" r="3"><animate attributeName="opacity" values="0.2;1;0.2" dur="4s" repeatCount="indefinite"/></circle>
    <circle cx="220" cy="66" r="2"><animate attributeName="opacity" values="0.2;1;0.2" dur="6s" repeatCount="indefinite"/></circle>
    <circle cx="460" cy="92" r="2"><animate attributeName="opacity" values="0.2;1;0.2" dur="5s" repeatCount="indefinite"/></circle>
  </g>
  <text x="90" y="122" fill="#f8fafc" font-size="54" font-family="Segoe UI, sans-serif" font-weight="700">mizzz</text>
  <text x="90" y="160" fill="#38bdf8" font-size="23" font-family="Segoe UI, sans-serif">Product Builder ・ AI Native Developer</text>
  <text x="90" y="192" fill="#cbd5e1" font-size="18" font-family="Segoe UI, sans-serif">Build small. Polish fast. Operate safely.</text>
  <text x="90" y="233" fill="#a78bfa" font-size="16" font-family="Segoe UI, sans-serif">UI / API / DB / Worker / Bot / AI</text>
</svg>
