<svg xmlns="http://www.w3.org/2000/svg" viewBox="0 0 1200 480" width="1200" height="480" role="img" aria-label="mizzz premium cyber anime racing hud hero">
  <defs>
    <linearGradient id="bg" x1="0" y1="0" x2="1" y2="1"><stop offset="0" stop-color="#020617"/><stop offset="1" stop-color="#111827"/></linearGradient>
    <linearGradient id="line" x1="0" y1="0" x2="1" y2="0"><stop offset="0" stop-color="#38bdf8"/><stop offset="0.55" stop-color="#8b5cf6"/><stop offset="1" stop-color="#d946ef"/></linearGradient>
    <linearGradient id="tail" x1="0" y1="0" x2="1" y2="0"><stop offset="0" stop-color="#ef4444" stop-opacity="0"/><stop offset="1" stop-color="#ef4444"/></linearGradient>
    <filter id="g"><feGaussianBlur stdDeviation="8"/></filter>
    <pattern id="scan" width="8" height="8" patternUnits="userSpaceOnUse"><path d="M0 0h8" stroke="#60a5fa" stroke-opacity=".08"/></pattern>
  </defs>
  <rect width="1200" height="480" fill="url(#bg)"/>
  <rect width="1200" height="480" fill="url(#scan)"><animate attributeName="opacity" values=".45;.25;.45" dur="9s" repeatCount="indefinite"/></rect>
  <path d="M0 380 L180 300 L340 320 L520 280 L700 310 L900 240 L1200 290" stroke="#334155" stroke-width="1" fill="none"/>
  <g opacity=".8">
    <rect x="50" y="45" width="670" height="280" rx="20" fill="#0f172a" fill-opacity=".72" stroke="#60a5fa" stroke-opacity=".5"/>
    <path d="M50 90h670" stroke="#38bdf8" stroke-opacity=".25"/>
    <text x="88" y="102" fill="#cbd5e1" font-size="16">PREMIUM CYBER ANIME RACING HUD</text>
    <text x="88" y="172" fill="#f8fafc" font-size="72" font-weight="700">mizzz</text>
    <text x="88" y="210" fill="#60a5fa" font-size="26">Product Builder</text>
    <text x="88" y="242" fill="#cbd5e1" font-size="22">Frontend-focused Full Stack ・ AI Native Developer</text>
    <text x="88" y="286" fill="#f8fafc" font-size="20">Build small. Polish fast. Operate safely.</text>
    <text x="88" y="316" fill="#64748b" font-size="16">UI / API / DB / Worker / Bot / AI</text>
  </g>
  <g transform="translate(810 70)">
    <circle cx="150" cy="150" r="115" fill="none" stroke="#1e293b" stroke-width="22"/>
    <circle cx="150" cy="150" r="115" fill="none" stroke="url(#line)" stroke-width="8" stroke-dasharray="520 190" stroke-linecap="round">
      <animateTransform attributeName="transform" type="rotate" from="0 150 150" to="360 150 150" dur="30s" repeatCount="indefinite"/>
    </circle>
    <circle cx="150" cy="150" r="78" fill="none" stroke="#38bdf8" stroke-opacity=".4" stroke-dasharray="4 12"/>
    <polyline points="40,215 88,170 128,177 171,143 206,154 262,108" stroke="#38bdf8" fill="none" stroke-width="3"><animate attributeName="stroke-dashoffset" from="220" to="0" dur="8s" repeatCount="indefinite"/></polyline>
    <text x="68" y="34" fill="#cbd5e1" font-size="14">TACHO / TELEMETRY</text>
  </g>
  <g>
    <path d="M620 390 L710 370 L860 365 L972 376 L1070 395 L980 398 L790 402 Z" fill="#0b1120" stroke="#38bdf8" stroke-opacity=".3"/>
    <path d="M750 375 L862 370 L943 378" stroke="#60a5fa" stroke-width="2"/>
    <path d="M978 392 L1060 392" stroke="url(#tail)" stroke-width="6" stroke-linecap="round"/>
    <path d="M978 399 L1054 399" stroke="#ef4444" stroke-opacity=".6" stroke-width="2"/>
  </g>
  <path d="M50 430h1100" stroke="url(#line)" stroke-opacity=".5" stroke-width="2" stroke-dasharray="14 10">
    <animate attributeName="stroke-dashoffset" from="0" to="-220" dur="11s" repeatCount="indefinite"/>
  </path>
</svg>
