<svg xmlns="http://www.w3.org/2000/svg" viewBox="0 0 1200 480" width="1200" height="480" role="img" aria-label="mizzz lunaris developer archive hero">
  <defs>
    <linearGradient id="bg" x1="0" y1="0" x2="1" y2="1">
      <stop offset="0" stop-color="#100a1f"/>
      <stop offset=".48" stop-color="#2d1d4c"/>
      <stop offset="1" stop-color="#090711"/>
    </linearGradient>
    <radialGradient id="moon" cx=".5" cy=".45" r=".55">
      <stop offset="0" stop-color="#f2eaff"/>
      <stop offset=".6" stop-color="#c4a8ec"/>
      <stop offset="1" stop-color="#7d5ab0"/>
    </radialGradient>
    <linearGradient id="violet" x1="0" y1="0" x2="1" y2="1">
      <stop offset="0" stop-color="#e4d4ff"/>
      <stop offset=".52" stop-color="#a982db"/>
      <stop offset="1" stop-color="#5f3b8c"/>
    </linearGradient>
    <linearGradient id="dress" x1="0" y1="0" x2="0" y2="1">
      <stop offset="0" stop-color="#342044"/>
      <stop offset="1" stop-color="#130d20"/>
    </linearGradient>
    <pattern id="stars" width="86" height="64" patternUnits="userSpaceOnUse">
      <circle cx="12" cy="16" r="1.2" fill="#efe7ff" opacity=".8"/>
      <circle cx="58" cy="42" r=".8" fill="#cbb6ff" opacity=".55"/>
      <path d="M77 13v8M73 17h8" stroke="#e9ddff" stroke-width="1" opacity=".5"/>
    </pattern>
    <filter id="glow">
      <feGaussianBlur stdDeviation="6" result="b"/>
      <feMerge><feMergeNode in="b"/><feMergeNode in="SourceGraphic"/></feMerge>
    </filter>
    <filter id="soft"><feGaussianBlur stdDeviation="18"/></filter>
  </defs>

  <rect width="1200" height="480" fill="url(#bg)"/>
  <rect width="1200" height="480" fill="url(#stars)" opacity=".7"/>
  <ellipse cx="952" cy="202" rx="238" ry="238" fill="#8b63ba" opacity=".15" filter="url(#soft)"/>
  <circle cx="965" cy="190" r="145" fill="url(#moon)" opacity=".82"/>
  <circle cx="965" cy="190" r="163" fill="none" stroke="#c9aff0" stroke-opacity=".34"/>
  <circle cx="965" cy="190" r="177" fill="none" stroke="#8c67ba" stroke-dasharray="2 14" stroke-linecap="round" opacity=".55">
    <animateTransform attributeName="transform" type="rotate" from="0 965 190" to="360 965 190" dur="70s" repeatCount="indefinite"/>
  </circle>

  <g opacity=".38" fill="#100b1c">
    <path d="M640 390V318h28v-48h18v48h25v72zm62 0V292h36v-34h13v34h28v98zm78 0V328h24v-62h15v62h28v62z"/>
    <path d="M623 390h250v15H623z"/>
    <path d="M648 270l29-38 29 38zm63-12l33-45 33 45zm72 8l29-41 29 41z"/>
  </g>

  <g stroke="#b89bdc" stroke-width="1.2" fill="none" opacity=".48">
    <path d="M84 0v72l18 18-18 18-18-18 18-18"/>
    <path d="M1090 0v58m0 0l11 16-11 16-11-16z"/>
    <path d="M1028 0v92"/>
    <circle cx="1028" cy="104" r="12"/>
    <path d="M1019 104h18M1028 95v18"/>
  </g>

  <rect x="18" y="18" width="1164" height="444" rx="28" fill="none" stroke="#bea1e6" stroke-opacity=".45"/>
  <rect x="29" y="29" width="1142" height="422" rx="23" fill="none" stroke="#6e4c99" stroke-opacity=".55"/>
  <path d="M45 82V48h34M1121 48h34v34M45 398v34h34M1121 432h34v-34" stroke="#ddc8ff" stroke-width="2" fill="none" opacity=".75"/>

  <g transform="translate(76 72)">
    <text x="0" y="0" fill="#c9afea" font-size="14" letter-spacing="5">LUNARIS // DEVELOPER ARCHIVE</text>
    <text x="0" y="86" fill="#f7f1ff" font-size="82" font-weight="700" letter-spacing="3">MIZZZ</text>
    <path d="M2 108h486" stroke="url(#violet)" stroke-width="3"/>
    <text x="0" y="151" fill="#e6d9f7" font-size="24">Frontend-focused Full Stack</text>
    <text x="0" y="184" fill="#b99adf" font-size="21">AI Native Developer / Product Builder</text>
    <text x="0" y="232" fill="#f1ebfa" font-size="17">ivRoom ・ Lunaria ・ Personal Products</text>
    <text x="0" y="262" fill="#a98fc9" font-size="15">UI / API / DB / Worker / Bot / Cloud</text>

    <g transform="translate(0 300)" font-size="13" font-weight="700" text-anchor="middle">
      <g><rect width="92" height="32" rx="16" fill="#2b193e" stroke="#9a75c8"/><text x="46" y="21" fill="#e8dcfa">REACT</text></g>
      <g transform="translate(104)"><rect width="110" height="32" rx="16" fill="#2b193e" stroke="#9a75c8"/><text x="55" y="21" fill="#e8dcfa">NEXT.JS</text></g>
      <g transform="translate(226)"><rect width="132" height="32" rx="16" fill="#2b193e" stroke="#9a75c8"/><text x="66" y="21" fill="#e8dcfa">TYPESCRIPT</text></g>
      <g transform="translate(370)"><rect width="128" height="32" rx="16" fill="#2b193e" stroke="#9a75c8"/><text x="64" y="21" fill="#e8dcfa">CLOUDFLARE</text></g>
    </g>
  </g>

  <g transform="translate(792 68)">
    <ellipse cx="166" cy="330" rx="152" ry="42" fill="#08060e" opacity=".5"/>
    <path d="M82 124C86 54 135 24 194 31c64 8 103 57 97 130-4 49-17 112-26 158H57c-1-71 9-151 25-195z" fill="#c7afd9" stroke="#eadfff" stroke-width="2"/>
    <path d="M75 144c-26 46-30 121-16 178l40-20c-4-57-1-104 17-141zm195-7c24 48 29 119 12 181l-39-18c8-61 6-107-13-150z" fill="#a98ac5"/>
    <path d="M80 111c4-57 50-93 109-93 56 0 101 31 111 86-24-12-49-17-76-18-57-3-99 10-144 25z" fill="#20142f" stroke="#a37acb" stroke-width="3"/>
    <path d="M93 83c35-35 121-55 187 10" fill="none" stroke="#d9c5ef" stroke-width="10" stroke-dasharray="7 7"/>
    <g transform="translate(263 87)">
      <path d="M0 25c-25-23-52-14-48 13 3 23 29 22 48 4zM4 25c27-21 54-10 47 17-6 23-31 18-47 1z" fill="#6d3d9f" stroke="#c4a7e4" stroke-width="2"/>
      <circle cx="2" cy="34" r="12" fill="#b89add"/>
      <path d="M-5 46l-16 49 24-16 22 17-12-51" fill="#4c286f" opacity=".9"/>
    </g>
    <ellipse cx="185" cy="155" rx="82" ry="70" fill="#f4eaf4"/>
    <path d="M102 135c9-48 43-75 91-77 45-2 77 21 89 59-18-13-32-23-50-34-2 24-6 43-14 60-17-20-26-31-37-54-8 23-17 38-33 57-11-18-19-33-22-52-7 18-13 30-24 41z" fill="#d2bddf"/>
    <g fill="#6f46a2">
      <ellipse cx="153" cy="158" rx="14" ry="18"/>
      <ellipse cx="220" cy="158" rx="14" ry="18"/>
    </g>
    <g fill="#f8f3ff"><circle cx="148" cy="152" r="4"/><circle cx="215" cy="152" r="4"/></g>
    <path d="M176 188q12 8 24 0" stroke="#9d6a99" stroke-width="2" fill="none" stroke-linecap="round"/>
    <path d="M105 223c20-30 53-46 83-46s65 16 84 47l30 101c-75 36-154 36-229 0z" fill="url(#dress)" stroke="#b898d7" stroke-width="2"/>
    <path d="M129 202c15 24 37 35 59 35 24 0 47-12 63-36l-25-21c-10 17-24 24-38 24s-28-7-38-24z" fill="#efe5f8"/>
    <path d="M188 202l-17 28 17 20 18-20z" fill="#7d4cad"/>
    <path d="M96 245c-35 10-51 40-55 76 18 9 35 7 51-7l24-51zm181 0c32 11 48 40 52 76-18 9-34 6-51-8l-22-51z" fill="#241432"/>
    <path d="M72 325c72 38 159 40 233 0" stroke="#d2bce8" stroke-width="6" stroke-dasharray="10 6" fill="none"/>
    <circle cx="188" cy="267" r="18" fill="#b795db" stroke="#eadcff" stroke-width="2"/>
    <path d="M188 257a7 7 0 0 0-5 12v7h10v-7a7 7 0 0 0-5-12z" fill="#251433"/>
  </g>

  <g filter="url(#glow)" stroke="#e5d7ff" fill="none" stroke-width="2">
    <circle cx="703" cy="128" r="12"/><path d="M715 128h56l-10 10m-12-10v12"/>
    <path d="M733 363c-20-18-38 3-22 20 9 9 20 2 24-4 5 7 17 13 25 2 13-18-8-34-27-18z" fill="#a97bd8" fill-opacity=".38"/>
    <path d="M674 214v20m-10-10h20M1127 188v18m-9-9h18"/>
  </g>

  <g fill="#f0e8ff">
    <circle cx="701" cy="75" r="2"><animate attributeName="opacity" values=".2;1;.2" dur="2.7s" repeatCount="indefinite"/></circle>
    <circle cx="1112" cy="320" r="2"><animate attributeName="opacity" values="1;.2;1" dur="3.4s" repeatCount="indefinite"/></circle>
    <circle cx="744" cy="284" r="1.5"><animate attributeName="opacity" values=".2;1;.2" dur="4s" repeatCount="indefinite"/></circle>
  </g>

  <text x="600" y="443" text-anchor="middle" fill="#9e82bf" font-size="12" letter-spacing="4">BUILD SMALL ・ POLISH FAST ・ OPERATE SAFELY</text>
</svg>