<svg xmlns="http://www.w3.org/2000/svg" viewBox="0 0 1200 245" width="1200" height="245" role="img" aria-label="mizzz developer status archive">
  <defs>
    <linearGradient id="bg" x1="0" y1="0" x2="1" y2="1"><stop stop-color="#171024"/><stop offset="1" stop-color="#29183d"/></linearGradient>
    <linearGradient id="line" x1="0" y1="0" x2="1" y2="0"><stop stop-color="#7f59aa"/><stop offset=".5" stop-color="#d6c0ee"/><stop offset="1" stop-color="#7f59aa"/></linearGradient>
    <filter id="g"><feGaussianBlur stdDeviation="5"/></filter>
  </defs>
  <rect x="10" y="10" width="1180" height="225" rx="28" fill="url(#bg)" stroke="#8e69b8"/>
  <rect x="24" y="24" width="1152" height="197" rx="20" fill="none" stroke="#cbb4e8" stroke-opacity=".25"/>
  <text x="58" y="62" fill="#ddcdf2" font-size="14" letter-spacing="5">ACTIVE SIGNAL // MIZZZ PROFILE</text>
  <circle cx="1125" cy="55" r="7" fill="#c79dea" filter="url(#g)"><animate attributeName="opacity" values=".35;1;.35" dur="2s" repeatCount="indefinite"/></circle>
  <circle cx="1125" cy="55" r="4" fill="#f2eaff"/>
  <g transform="translate(48 92)">
    <g><rect width="255" height="96" rx="18" fill="#211331" stroke="#76529f"/><text x="22" y="29" fill="#9879b8" font-size="12" letter-spacing="3">CLASS</text><text x="22" y="61" fill="#f1eaff" font-size="21" font-weight="700">PRODUCT BUILDER</text><text x="22" y="82" fill="#bca6d5" font-size="13">UIから運用まで一気通貫</text></g>
    <g transform="translate(273)"><rect width="255" height="96" rx="18" fill="#211331" stroke="#76529f"/><text x="22" y="29" fill="#9879b8" font-size="12" letter-spacing="3">MAIN ROLE</text><text x="22" y="61" fill="#f1eaff" font-size="20" font-weight="700">FRONTEND / FULL STACK</text><text x="22" y="82" fill="#bca6d5" font-size="13">React・Next.js・TypeScript</text></g>
    <g transform="translate(546)"><rect width="255" height="96" rx="18" fill="#211331" stroke="#76529f"/><text x="22" y="29" fill="#9879b8" font-size="12" letter-spacing="3">CURRENT QUEST</text><text x="22" y="61" fill="#f1eaff" font-size="21" font-weight="700">IVROOM / LUNARIA</text><text x="22" y="82" fill="#bca6d5" font-size="13">Community product ecosystem</text></g>
    <g transform="translate(819)"><rect width="255" height="96" rx="18" fill="#211331" stroke="#76529f"/><text x="22" y="29" fill="#9879b8" font-size="12" letter-spacing="3">DEVELOPMENT STYLE</text><text x="22" y="61" fill="#f1eaff" font-size="20" font-weight="700">AI NATIVE BUILD</text><text x="22" y="82" fill="#bca6d5" font-size="13">設計・実装・レビュー・運用</text></g>
  </g>
  <path d="M58 207h1084" stroke="url(#line)" stroke-width="2" stroke-dasharray="12 10"><animate attributeName="stroke-dashoffset" from="0" to="-220" dur="14s" repeatCount="indefinite"/></path>
</svg>