<svg xmlns="http://www.w3.org/2000/svg" width="1200" height="320" viewBox="0 0 1200 320" role="img" aria-label="Now Playing from YouTube Music">
  <defs>
    <linearGradient id="bg" x1="0" y1="0" x2="1" y2="1">
      <stop offset="0%" stop-color="#05070f"/>
      <stop offset="55%" stop-color="#0d1430"/>
      <stop offset="100%" stop-color="#1b0f2f"/>
    </linearGradient>
  </defs>
  <rect width="1200" height="320" rx="24" fill="url(#bg)"/>
  <rect x="24" y="24" width="1152" height="272" rx="18" fill="none" stroke="#334155"/>
  <rect x="38" y="38" width="10" height="244" rx="5" fill="#ef4444" opacity="0.9"/>
  <text x="72" y="72" fill="#93c5fd" font-family="Segoe UI,Arial,sans-serif" font-size="18" letter-spacing="2">NOW PLAYING</text>
  <text x="72" y="98" fill="#fca5a5" font-family="Segoe UI,Arial,sans-serif" font-size="14">YouTube Music History</text>
  <text x="72" y="148" fill="#f8fafc" font-family="Segoe UI,Arial,sans-serif" font-size="34" font-weight="700">No recent YouTube Music history</text>
  <text x="72" y="184" fill="#cbd5e1" font-family="Segoe UI,Arial,sans-serif" font-size="24">Waiting for next drive mode track...</text>
  <text x="72" y="214" fill="#a5b4fc" font-family="Segoe UI,Arial,sans-serif" font-size="18">Album: YouTube Music history sync</text>
  <text x="72" y="242" fill="#94a3b8" font-family="Segoe UI,Arial,sans-serif" font-size="16">History time: 2026-05-17 00:19 UTC</text>
  <text x="72" y="268" fill="#64748b" font-family="Segoe UI,Arial,sans-serif" font-size="14">Updated by GitHub Actions: 2026-05-17 00:19 UTC</text>
  <polyline points="760,220 790,190 820,210 850,150 880,168 910,120 940,136 970,110 1000,142 1030,86 1060,132 1090,112" fill="none" stroke="#60a5fa" stroke-width="3"/>
  <rect x="748" y="236" width="356" height="14" rx="7" fill="#1e293b"/>
  <rect x="748" y="236" width="214" height="14" rx="7" fill="#8b5cf6"/>
  <rect x="748" y="260" width="356" height="4" rx="2" fill="#ef4444" opacity="0.8"/>
</svg>
