<svg width="1200" height="250" viewBox="0 0 1200 250" xmlns="http://www.w3.org/2000/svg" role="img" aria-label="Quest board mission HUD">
<rect width="1200" height="250" rx="18" fill="#0f172a"/>
<text x="60" y="62" fill="#f8fafc" font-size="32" font-family="Segoe UI" font-weight="700">QUEST BOARD</text>
<g stroke="#38bdf8" stroke-opacity=".5"><path d="M60 85H1140"/><path d="M60 206H1140"/></g>
<g fill="#111827" stroke="#334155"><rect x="60" y="102" width="255" height="88" rx="10"/><rect x="335" y="102" width="255" height="88" rx="10"/><rect x="610" y="102" width="255" height="88" rx="10"/><rect x="885" y="102" width="255" height="88" rx="10"/></g>
<path d="M90 170L250 132L420 162L695 120L920 158L1110 126" stroke="#8b5cf6" stroke-width="3" fill="none"/>
<g fill="#38bdf8"><circle cx="250" cy="132" r="4"/><circle cx="420" cy="162" r="4"/><circle cx="695" cy="120" r="4"/><circle cx="920" cy="158" r="4"/></g>
<rect x="60" y="220" width="1080" height="8" rx="4" fill="#1f2937"/><rect x="60" y="220" width="680" height="8" rx="4" fill="#60a5fa"><animate attributeName="width" values="420;760;680" dur="10s" repeatCount="indefinite"/></rect>
</svg>
