<svg width="1200" height="290" viewBox="0 0 1200 290" xmlns="http://www.w3.org/2000/svg" role="img" aria-label="Developer status racing card">
<rect width="1200" height="290" rx="20" fill="#111827"/>
<text x="60" y="72" fill="#f8fafc" font-size="34" font-family="Segoe UI" font-weight="700">DEVELOPER STATUS</text>
<text x="60" y="107" fill="#cbd5e1" font-size="19" font-family="Segoe UI">Product Builder ・ AI Native Developer</text>
<text x="60" y="136" fill="#a78bfa" font-size="16" font-family="Segoe UI">Build small. Polish fast. Operate safely.</text>
<g transform="translate(960 145)"><circle r="82" stroke="#334155" stroke-width="14"/><circle r="82" stroke="#38bdf8" stroke-width="5" stroke-dasharray="14 10"><animateTransform attributeName="transform" type="rotate" from="0" to="360" dur="16s" repeatCount="indefinite"/></circle><path d="M0 -74A74 74 0 0 1 58 -46" stroke="#ef4444" stroke-width="7"/></g>
<path d="M735 215C786 192 850 188 907 196C944 201 986 212 1036 203" stroke="#60a5fa" stroke-width="3"/>
<g font-family="Segoe UI" font-size="14" fill="#cbd5e1"><text x="60" y="182">UI</text><text x="60" y="209">API</text><text x="60" y="236">DB</text><text x="60" y="263">AI</text></g>
<g><rect x="110" y="170" width="340" height="10" rx="5" fill="#1f2937"/><rect x="110" y="170" width="285" height="10" rx="5" fill="#38bdf8"/>
<rect x="110" y="197" width="340" height="10" rx="5" fill="#1f2937"/><rect x="110" y="197" width="255" height="10" rx="5" fill="#60a5fa"/>
<rect x="110" y="224" width="340" height="10" rx="5" fill="#1f2937"/><rect x="110" y="224" width="234" height="10" rx="5" fill="#8b5cf6"/>
<rect x="110" y="251" width="340" height="10" rx="5" fill="#1f2937"/><rect x="110" y="251" width="295" height="10" rx="5" fill="#a78bfa"/></g>
</svg>
