<svg width="1200" height="320" viewBox="0 0 1200 320" xmlns="http://www.w3.org/2000/svg" role="img" aria-label="Cyber route world map">
<rect width="1200" height="320" rx="20" fill="#111827"/>
<text x="60" y="60" fill="#f8fafc" font-size="32" font-family="Segoe UI" font-weight="700">WORLD MAP</text>
<g fill="#cbd5e1" font-size="15" font-family="Segoe UI"><text x="100" y="126">Frontend Bay</text><text x="280" y="220">API Gate</text><text x="480" y="135">Database Core</text><text x="680" y="230">Worker Lane</text><text x="860" y="126">Bot Station</text><text x="950" y="235">AI Lab</text><text x="90" y="250">Cloud Port</text><text x="430" y="270">Game Zone</text><text x="760" y="92">Night Route</text></g>
<path d="M120 150C220 92 300 252 420 170C530 100 640 260 760 178C870 108 980 240 1100 160" stroke="#38bdf8" stroke-width="3" fill="none"/>
<path d="M120 170C240 108 340 274 460 190C560 122 670 280 790 198C898 126 1000 258 1100 182" stroke="#8b5cf6" stroke-width="2" fill="none" opacity=".8"/>
<circle cx="120" cy="150" r="4" fill="#ef4444"><animateMotion dur="14s" repeatCount="indefinite" path="M0 0C100 -58 180 102 300 20C410 -50 520 110 640 28C750 -42 860 90 980 10"/></circle>
</svg>
